<mxfile host="app.diagrams.net" modified="2023-04-03T12:24:08.397Z" agent="Mozilla/5.0 (Windows NT 10.0; Win64; x64) AppleWebKit/537.36 (KHTML, like Gecko) Chrome/111.0.0.0 Safari/537.36" etag="AiVPR5zLY05_11jOjPLc" version="21.1.4" type="github">
  <diagram name="第 1 页" id="gcG0bTDZRvVNro1CGcHu">
    <mxGraphModel dx="2074" dy="1116" grid="1" gridSize="10" guides="1" tooltips="1" connect="1" arrows="1" fold="1" page="1" pageScale="1" pageWidth="827" pageHeight="1169" math="0" shadow="0">
      <root>
        <mxCell id="0" />
        <mxCell id="1" parent="0" />
        <mxCell id="PwxZ7v2_Py_s7yW-o3Jw-1" value="1、2、4、3" style="rounded=0;whiteSpace=wrap;html=1;" vertex="1" parent="1">
          <mxGeometry x="280" y="270" width="120" height="60" as="geometry" />
        </mxCell>
        <mxCell id="PwxZ7v2_Py_s7yW-o3Jw-2" value="1、2" style="rounded=0;whiteSpace=wrap;html=1;" vertex="1" parent="1">
          <mxGeometry x="140" y="410" width="120" height="60" as="geometry" />
        </mxCell>
        <mxCell id="PwxZ7v2_Py_s7yW-o3Jw-3" value="4、3" style="rounded=0;whiteSpace=wrap;html=1;" vertex="1" parent="1">
          <mxGeometry x="414" y="410" width="120" height="60" as="geometry" />
        </mxCell>
        <mxCell id="PwxZ7v2_Py_s7yW-o3Jw-6" value="" style="endArrow=classic;html=1;rounded=0;exitX=0.5;exitY=1;exitDx=0;exitDy=0;entryX=0.5;entryY=0;entryDx=0;entryDy=0;" edge="1" parent="1" source="PwxZ7v2_Py_s7yW-o3Jw-1" target="PwxZ7v2_Py_s7yW-o3Jw-2">
          <mxGeometry width="50" height="50" relative="1" as="geometry">
            <mxPoint x="390" y="590" as="sourcePoint" />
            <mxPoint x="440" y="540" as="targetPoint" />
          </mxGeometry>
        </mxCell>
        <mxCell id="PwxZ7v2_Py_s7yW-o3Jw-7" value="" style="endArrow=classic;html=1;rounded=0;exitX=0.5;exitY=1;exitDx=0;exitDy=0;entryX=0.5;entryY=0;entryDx=0;entryDy=0;" edge="1" parent="1" source="PwxZ7v2_Py_s7yW-o3Jw-1" target="PwxZ7v2_Py_s7yW-o3Jw-3">
          <mxGeometry width="50" height="50" relative="1" as="geometry">
            <mxPoint x="350" y="340" as="sourcePoint" />
            <mxPoint x="210" y="420" as="targetPoint" />
          </mxGeometry>
        </mxCell>
        <mxCell id="PwxZ7v2_Py_s7yW-o3Jw-9" value="" style="endArrow=block;dashed=1;endFill=0;endSize=12;html=1;rounded=0;exitX=0.5;exitY=1;exitDx=0;exitDy=0;" edge="1" parent="1" source="PwxZ7v2_Py_s7yW-o3Jw-2" target="PwxZ7v2_Py_s7yW-o3Jw-10">
          <mxGeometry width="160" relative="1" as="geometry">
            <mxPoint x="330" y="570" as="sourcePoint" />
            <mxPoint x="200" y="550" as="targetPoint" />
          </mxGeometry>
        </mxCell>
        <mxCell id="PwxZ7v2_Py_s7yW-o3Jw-10" value="dp[1] = 1、&lt;font color=&quot;#ff0000&quot;&gt;dp[2] = 2&lt;/font&gt;" style="rounded=0;whiteSpace=wrap;html=1;" vertex="1" parent="1">
          <mxGeometry x="140" y="540" width="120" height="60" as="geometry" />
        </mxCell>
        <mxCell id="PwxZ7v2_Py_s7yW-o3Jw-11" value="&lt;span style=&quot;border-color: var(--border-color);&quot;&gt;dp[3] = 3&lt;/span&gt;、&lt;font color=&quot;#ff0000&quot;&gt;dp[4] = 2&lt;/font&gt;" style="rounded=0;whiteSpace=wrap;html=1;" vertex="1" parent="1">
          <mxGeometry x="414" y="540" width="120" height="60" as="geometry" />
        </mxCell>
        <mxCell id="PwxZ7v2_Py_s7yW-o3Jw-12" value="" style="endArrow=block;dashed=1;endFill=0;endSize=12;html=1;rounded=0;exitX=0.5;exitY=1;exitDx=0;exitDy=0;" edge="1" parent="1">
          <mxGeometry width="160" relative="1" as="geometry">
            <mxPoint x="473.5" y="470" as="sourcePoint" />
            <mxPoint x="473.5" y="540" as="targetPoint" />
          </mxGeometry>
        </mxCell>
        <mxCell id="PwxZ7v2_Py_s7yW-o3Jw-13" value="&lt;font color=&quot;#ff0000&quot;&gt;dp[3] = 3&lt;/font&gt;、dp[4] = 1" style="rounded=0;whiteSpace=wrap;html=1;" vertex="1" parent="1">
          <mxGeometry x="110" y="270" width="120" height="60" as="geometry" />
        </mxCell>
        <mxCell id="PwxZ7v2_Py_s7yW-o3Jw-14" value="" style="endArrow=block;dashed=1;endFill=0;endSize=12;html=1;rounded=0;exitX=0;exitY=0.5;exitDx=0;exitDy=0;entryX=1;entryY=0.5;entryDx=0;entryDy=0;" edge="1" parent="1" source="PwxZ7v2_Py_s7yW-o3Jw-1" target="PwxZ7v2_Py_s7yW-o3Jw-13">
          <mxGeometry width="160" relative="1" as="geometry">
            <mxPoint x="240" y="240" as="sourcePoint" />
            <mxPoint x="240" y="310" as="targetPoint" />
          </mxGeometry>
        </mxCell>
      </root>
    </mxGraphModel>
  </diagram>
</mxfile>
